SplineFontDB: 3.2
FontName: lclock
FullName: lclock
FamilyName: lclock
Weight: Regular
Copyright: 
Version: 1.0.0
ItalicAngle: 0
UnderlinePosition: 0
UnderlineWidth: 0
Ascent: 1000
Descent: 0
InvalidEm: 0
LayerCount: 2
Layer: 0 0 "+gMyXYgAA" 1
Layer: 1 0 "+Uk2XYgAA" 0
XUID: [1021 424 -602532898 20827]
OS2Version: 0
OS2_WeightWidthSlopeOnly: 0
OS2_UseTypoMetrics: 0
CreationTime: 1725504448
ModificationTime: 1725546497
PfmFamily: 17
TTFWeight: 400
TTFWidth: 5
LineGap: 90
VLineGap: 90
OS2TypoAscent: 0
OS2TypoAOffset: 1
OS2TypoDescent: 0
OS2TypoDOffset: 1
OS2TypoLinegap: 90
OS2WinAscent: 0
OS2WinAOffset: 1
OS2WinDescent: 0
OS2WinDOffset: 1
HheadAscent: 0
HheadAOffset: 1
HheadDescent: 0
HheadDOffset: 1
OS2Vendor: 'PfEd'
MarkAttachClasses: 1
DEI: 91125

StartChar: .notdef
Encoding: 0 0 0
Width: 500
VWidth: 1024
HStem: 0 21G<0 1000> 980 20G<0 1000>
VStem: 0 1000<0 1000>
LayerCount: 2
Fore
SplineSet
0 0 m 1
 0 1000 l 1
 1000 1000 l 1
 1000 0 l 1
 0 0 l 1
EndSplineSet
Validated: 1
EndChar

StartChar: 
Encoding: 1 56 1
Width: 500
VWidth: 1024
HStem: 0 125<156.25 281.25> 62.5 21G<11.25 51.25 386.25 426.25> 437.5 125<125 312.5> 468.75 448.75G<11.25 51.25 386.25 426.25> 531.25 21G<11.25 51.25 386.25 426.25> 875 125<156.25 281.25> 917.5 20G<11.25 51.25 386.25 426.25>
VStem: 0 125<156.25 375 625 843.75> 312.5 125<156.25 375 625 843.75>
LayerCount: 2
Fore
SplineSet
93.75 1000 m 1x0580
 343.75 1000 l 1
 375 968.75 l 1
 281.25 875 l 1
 156.25 875 l 1
 62.5 968.75 l 1
 93.75 1000 l 1x0580
31.25 937.5 m 1x2380
 125 843.75 l 1
 125 625 l 1
 31.25 531.25 l 1x0b80
 0 562.5 l 1
 0 906.25 l 1
 31.25 937.5 l 1x2380
406.25 937.5 m 1
 437.5 906.25 l 1
 437.5 562.5 l 1x2380
 406.25 531.25 l 1
 312.5 625 l 1
 312.5 843.75 l 1
 406.25 937.5 l 1
125 562.5 m 1
 312.5 562.5 l 1
 375 500 l 1
 312.5 437.5 l 1
 125 437.5 l 1
 62.5 500 l 1
 125 562.5 l 1
31.25 468.75 m 1x1180
 125 375 l 1
 125 156.25 l 1
 31.25 62.5 l 1
 0 93.75 l 1
 0 437.5 l 1x6180
 31.25 468.75 l 1x1180
406.25 468.75 m 1x5180
 437.5 437.5 l 1x2180
 437.5 93.75 l 1
 406.25 62.5 l 1
 312.5 156.25 l 1
 312.5 375 l 1
 406.25 468.75 l 1x5180
156.25 125 m 1x8180
 281.25 125 l 1
 375 31.25 l 1
 343.75 0 l 1
 93.75 0 l 1
 62.5 31.25 l 1
 156.25 125 l 1x8180
EndSplineSet
Validated: 2621441
EndChar

StartChar: 
Encoding: 2 48 2
Width: 500
VWidth: 1024
HStem: 0 125<156.25 281.25> 62.5 21G<11.25 51.25 386.25 426.25> 468.75 448.75G<11.25 51.25 386.25 426.25> 531.25 21G<11.25 51.25 386.25 426.25> 875 125<156.25 281.25> 917.5 20G<11.25 51.25 386.25 426.25>
VStem: 0 125<156.25 375 625 843.75> 312.5 125<156.25 375 625 843.75>
LayerCount: 2
Fore
SplineSet
93.75 1000 m 1x0b
 343.75 1000 l 1
 375 968.75 l 1
 281.25 875 l 1
 156.25 875 l 1
 62.5 968.75 l 1
 93.75 1000 l 1x0b
31.25 937.5 m 1x17
 125 843.75 l 1
 125 625 l 1
 31.25 531.25 l 1
 0 562.5 l 1
 0 906.25 l 1
 31.25 937.5 l 1x17
406.25 937.5 m 1
 437.5 906.25 l 1
 437.5 562.5 l 1
 406.25 531.25 l 1
 312.5 625 l 1
 312.5 843.75 l 1
 406.25 937.5 l 1
31.25 468.75 m 1x63
 125 375 l 1
 125 156.25 l 1
 31.25 62.5 l 1
 0 93.75 l 1
 0 437.5 l 1
 31.25 468.75 l 1x63
406.25 468.75 m 1
 437.5 437.5 l 1
 437.5 93.75 l 1
 406.25 62.5 l 1
 312.5 156.25 l 1
 312.5 375 l 1
 406.25 468.75 l 1
156.25 125 m 1x83
 281.25 125 l 1
 375 31.25 l 1
 343.75 0 l 1
 93.75 0 l 1
 62.5 31.25 l 1
 156.25 125 l 1x83
EndSplineSet
Validated: 2621441
EndChar

StartChar: 
Encoding: 3 49 3
Width: 500
VWidth: 1024
HStem: 62.5 21G<386.25 426.25> 468.75 448.75G<386.25 426.25> 531.25 21G<386.25 426.25> 917.5 20G<386.25 426.25>
VStem: 312.5 125<156.25 375 625 843.75>
LayerCount: 2
Fore
SplineSet
406.25 937.5 m 1xb8
 437.5 906.25 l 1
 437.5 562.5 l 1
 406.25 531.25 l 1
 312.5 625 l 1
 312.5 843.75 l 1
 406.25 937.5 l 1xb8
406.25 468.75 m 1xc8
 437.5 437.5 l 1
 437.5 93.75 l 1
 406.25 62.5 l 1
 312.5 156.25 l 1
 312.5 375 l 1
 406.25 468.75 l 1xc8
EndSplineSet
Validated: 2621441
EndChar

StartChar: 
Encoding: 4 50 4
Width: 500
VWidth: 1024
HStem: 0 125<156.25 281.25> 62.5 21G<11.25 51.25> 437.5 125<125 312.5> 468.75 448.75G<11.25 51.25 386.25 426.25> 531.25 21G<386.25 426.25> 875 125<156.25 281.25> 917.5 20G<386.25 426.25>
VStem: 0 125<156.25 375> 312.5 125<625 843.75>
LayerCount: 2
Fore
SplineSet
93.75 1000 m 1x0580
 343.75 1000 l 1
 375 968.75 l 1
 281.25 875 l 1
 156.25 875 l 1
 62.5 968.75 l 1
 93.75 1000 l 1x0580
406.25 937.5 m 1x0b80
 437.5 906.25 l 1
 437.5 562.5 l 1x2380
 406.25 531.25 l 1
 312.5 625 l 1
 312.5 843.75 l 1
 406.25 937.5 l 1x0b80
125 562.5 m 1
 312.5 562.5 l 1
 375 500 l 1
 312.5 437.5 l 1
 125 437.5 l 1
 62.5 500 l 1
 125 562.5 l 1
31.25 468.75 m 1x1180
 125 375 l 1
 125 156.25 l 1
 31.25 62.5 l 1
 0 93.75 l 1
 0 437.5 l 1x6180
 31.25 468.75 l 1x1180
156.25 125 m 1x8180
 281.25 125 l 1
 375 31.25 l 1
 343.75 0 l 1
 93.75 0 l 1
 62.5 31.25 l 1
 156.25 125 l 1x8180
EndSplineSet
Validated: 2621441
EndChar

StartChar: 
Encoding: 5 51 5
Width: 500
VWidth: 1024
HStem: 0 125<156.25 281.25> 62.5 21G<386.25 426.25> 437.5 125<125 312.5> 468.75 448.75G<386.25 426.25> 531.25 21G<386.25 426.25> 875 125<156.25 281.25> 917.5 20G<386.25 426.25>
VStem: 312.5 125<156.25 375 625 843.75>
LayerCount: 2
Fore
SplineSet
93.75 1000 m 1x05
 343.75 1000 l 1
 375 968.75 l 1
 281.25 875 l 1
 156.25 875 l 1
 62.5 968.75 l 1
 93.75 1000 l 1x05
406.25 937.5 m 1x0b
 437.5 906.25 l 1
 437.5 562.5 l 1x23
 406.25 531.25 l 1
 312.5 625 l 1
 312.5 843.75 l 1
 406.25 937.5 l 1x0b
125 562.5 m 1
 312.5 562.5 l 1
 375 500 l 1
 312.5 437.5 l 1
 125 437.5 l 1
 62.5 500 l 1
 125 562.5 l 1
406.25 468.75 m 1x51
 437.5 437.5 l 1x21
 437.5 93.75 l 1
 406.25 62.5 l 1
 312.5 156.25 l 1
 312.5 375 l 1
 406.25 468.75 l 1x51
156.25 125 m 1x81
 281.25 125 l 1
 375 31.25 l 1
 343.75 0 l 1
 93.75 0 l 1
 62.5 31.25 l 1
 156.25 125 l 1x81
EndSplineSet
Validated: 2621441
EndChar

StartChar: 
Encoding: 6 52 6
Width: 500
VWidth: 1024
HStem: 62.5 21G<386.25 426.25> 437.5 125<125 312.5> 531.25 21G<11.25 51.25 386.25 426.25> 917.5 20G<11.25 51.25 386.25 426.25> 917.5 20G<11.25 51.25 386.25 426.25>
VStem: 0 125<625 843.75> 312.5 125<156.25 375 625 843.75>
LayerCount: 2
Fore
SplineSet
31.25 937.5 m 1xd6
 125 843.75 l 1
 125 625 l 1
 31.25 531.25 l 1xb6
 0 562.5 l 1
 0 906.25 l 1
 31.25 937.5 l 1xd6
406.25 937.5 m 1
 437.5 906.25 l 1
 437.5 562.5 l 1xd6
 406.25 531.25 l 1
 312.5 625 l 1
 312.5 843.75 l 1
 406.25 937.5 l 1
125 562.5 m 1
 312.5 562.5 l 1
 375 500 l 1
 312.5 437.5 l 1
 125 437.5 l 1
 62.5 500 l 1
 125 562.5 l 1
406.25 468.75 m 1
 437.5 437.5 l 1
 437.5 93.75 l 1
 406.25 62.5 l 1
 312.5 156.25 l 1
 312.5 375 l 1
 406.25 468.75 l 1
EndSplineSet
Validated: 2621441
EndChar

StartChar: 
Encoding: 7 53 7
Width: 500
VWidth: 1024
HStem: 0 125<156.25 281.25> 62.5 21G<386.25 426.25> 437.5 125<125 312.5> 531.25 21G<11.25 51.25> 875 125<156.25 281.25> 917.5 20G<11.25 51.25 386.25 426.25>
VStem: 0 125<625 843.75> 312.5 125<156.25 375>
LayerCount: 2
Fore
SplineSet
93.75 1000 m 1x0b
 343.75 1000 l 1
 375 968.75 l 1
 281.25 875 l 1
 156.25 875 l 1
 62.5 968.75 l 1
 93.75 1000 l 1x0b
31.25 937.5 m 1x27
 125 843.75 l 1
 125 625 l 1
 31.25 531.25 l 1x17
 0 562.5 l 1
 0 906.25 l 1
 31.25 937.5 l 1x27
125 562.5 m 1x23
 312.5 562.5 l 1
 375 500 l 1
 312.5 437.5 l 1
 125 437.5 l 1
 62.5 500 l 1
 125 562.5 l 1x23
406.25 468.75 m 1
 437.5 437.5 l 1
 437.5 93.75 l 1
 406.25 62.5 l 1x63
 312.5 156.25 l 1
 312.5 375 l 1
 406.25 468.75 l 1
156.25 125 m 1x83
 281.25 125 l 1
 375 31.25 l 1
 343.75 0 l 1
 93.75 0 l 1
 62.5 31.25 l 1
 156.25 125 l 1x83
EndSplineSet
Validated: 2621441
EndChar

StartChar: 
Encoding: 8 54 8
Width: 500
VWidth: 1024
HStem: 0 125<156.25 281.25> 62.5 21G<11.25 51.25 386.25 426.25> 437.5 125<125 312.5> 468.75 448.75G<11.25 51.25 386.25 426.25> 531.25 21G<11.25 51.25> 875 125<156.25 281.25> 917.5 20G<11.25 51.25>
VStem: 0 125<156.25 375 625 843.75> 312.5 125<156.25 375>
LayerCount: 2
Fore
SplineSet
93.75 1000 m 1x0580
 343.75 1000 l 1
 375 968.75 l 1
 281.25 875 l 1
 156.25 875 l 1
 62.5 968.75 l 1
 93.75 1000 l 1x0580
31.25 937.5 m 1x2380
 125 843.75 l 1
 125 625 l 1
 31.25 531.25 l 1x0b80
 0 562.5 l 1
 0 906.25 l 1
 31.25 937.5 l 1x2380
125 562.5 m 1x2180
 312.5 562.5 l 1
 375 500 l 1
 312.5 437.5 l 1
 125 437.5 l 1
 62.5 500 l 1
 125 562.5 l 1x2180
31.25 468.75 m 1x1180
 125 375 l 1
 125 156.25 l 1
 31.25 62.5 l 1
 0 93.75 l 1
 0 437.5 l 1x6180
 31.25 468.75 l 1x1180
406.25 468.75 m 1x5180
 437.5 437.5 l 1x2180
 437.5 93.75 l 1
 406.25 62.5 l 1
 312.5 156.25 l 1
 312.5 375 l 1
 406.25 468.75 l 1x5180
156.25 125 m 1x8180
 281.25 125 l 1
 375 31.25 l 1
 343.75 0 l 1
 93.75 0 l 1
 62.5 31.25 l 1
 156.25 125 l 1x8180
EndSplineSet
Validated: 2621441
EndChar

StartChar: 
Encoding: 9 55 9
Width: 500
VWidth: 1024
HStem: 62.5 21G<386.25 426.25> 468.75 448.75G<386.25 426.25> 531.25 21G<386.25 426.25> 875 125<156.25 281.25> 917.5 20G<386.25 426.25>
VStem: 312.5 125<156.25 375 625 843.75>
LayerCount: 2
Fore
SplineSet
93.75 1000 m 1x94
 343.75 1000 l 1
 375 968.75 l 1
 281.25 875 l 1
 156.25 875 l 1
 62.5 968.75 l 1
 93.75 1000 l 1x94
406.25 937.5 m 1xac
 437.5 906.25 l 1
 437.5 562.5 l 1
 406.25 531.25 l 1
 312.5 625 l 1
 312.5 843.75 l 1
 406.25 937.5 l 1xac
406.25 468.75 m 1xc4
 437.5 437.5 l 1
 437.5 93.75 l 1
 406.25 62.5 l 1
 312.5 156.25 l 1
 312.5 375 l 1
 406.25 468.75 l 1xc4
EndSplineSet
Validated: 2621441
EndChar

StartChar: 
Encoding: 10 57 10
Width: 500
VWidth: 1024
HStem: 0 125<156.25 281.25> 62.5 21G<386.25 426.25> 437.5 125<125 312.5> 531.25 21G<11.25 51.25 386.25 426.25> 875 125<156.25 281.25> 917.5 20G<11.25 51.25 386.25 426.25> 917.5 20G<11.25 51.25 386.25 426.25>
VStem: 0 125<625 843.75> 312.5 125<156.25 375 625 843.75>
LayerCount: 2
Fore
SplineSet
93.75 1000 m 1x0980
 343.75 1000 l 1
 375 968.75 l 1
 281.25 875 l 1
 156.25 875 l 1
 62.5 968.75 l 1
 93.75 1000 l 1x0980
31.25 937.5 m 1x2580
 125 843.75 l 1
 125 625 l 1
 31.25 531.25 l 1x1580
 0 562.5 l 1
 0 906.25 l 1
 31.25 937.5 l 1x2580
406.25 937.5 m 1
 437.5 906.25 l 1
 437.5 562.5 l 1x2580
 406.25 531.25 l 1
 312.5 625 l 1
 312.5 843.75 l 1
 406.25 937.5 l 1
125 562.5 m 1
 312.5 562.5 l 1
 375 500 l 1
 312.5 437.5 l 1
 125 437.5 l 1
 62.5 500 l 1
 125 562.5 l 1
406.25 468.75 m 1
 437.5 437.5 l 1
 437.5 93.75 l 1
 406.25 62.5 l 1x6180
 312.5 156.25 l 1
 312.5 375 l 1
 406.25 468.75 l 1
156.25 125 m 1x8180
 281.25 125 l 1
 375 31.25 l 1
 343.75 0 l 1
 93.75 0 l 1
 62.5 31.25 l 1
 156.25 125 l 1x8180
EndSplineSet
Validated: 2621441
EndChar

StartChar: 
Encoding: 11 65 11
Width: 500
VWidth: 1024
HStem: 62.5 21G<11.25 51.25 386.25 426.25> 437.5 125<125 312.5> 468.75 448.75G<11.25 51.25 386.25 426.25> 531.25 21G<11.25 51.25 386.25 426.25> 875 125<156.25 281.25> 917.5 20G<11.25 51.25 386.25 426.25>
VStem: 0 125<156.25 375 625 843.75> 312.5 125<156.25 375 625 843.75>
LayerCount: 2
Fore
SplineSet
93.75 1000 m 1x8b
 343.75 1000 l 1
 375 968.75 l 1
 281.25 875 l 1
 156.25 875 l 1
 62.5 968.75 l 1
 93.75 1000 l 1x8b
31.25 937.5 m 1xc7
 125 843.75 l 1
 125 625 l 1
 31.25 531.25 l 1x97
 0 562.5 l 1
 0 906.25 l 1
 31.25 937.5 l 1xc7
406.25 937.5 m 1
 437.5 906.25 l 1
 437.5 562.5 l 1xc7
 406.25 531.25 l 1
 312.5 625 l 1
 312.5 843.75 l 1
 406.25 937.5 l 1
125 562.5 m 1
 312.5 562.5 l 1
 375 500 l 1
 312.5 437.5 l 1
 125 437.5 l 1
 62.5 500 l 1
 125 562.5 l 1
31.25 468.75 m 1xa3
 125 375 l 1
 125 156.25 l 1
 31.25 62.5 l 1
 0 93.75 l 1
 0 437.5 l 1xc3
 31.25 468.75 l 1xa3
406.25 468.75 m 1xa3
 437.5 437.5 l 1xc3
 437.5 93.75 l 1
 406.25 62.5 l 1
 312.5 156.25 l 1
 312.5 375 l 1
 406.25 468.75 l 1xa3
EndSplineSet
Validated: 2621441
EndChar

StartChar: 
Encoding: 12 67 12
Width: 500
VWidth: 1024
HStem: 0 125<156.25 281.25> 62.5 21G<11.25 51.25> 468.75 448.75G<11.25 51.25> 531.25 21G<11.25 51.25> 875 125<156.25 281.25> 917.5 20G<11.25 51.25>
VStem: 0 125<156.25 375 625 843.75>
LayerCount: 2
Fore
SplineSet
93.75 1000 m 1x0a
 343.75 1000 l 1
 375 968.75 l 1
 281.25 875 l 1
 156.25 875 l 1
 62.5 968.75 l 1
 93.75 1000 l 1x0a
31.25 937.5 m 1x16
 125 843.75 l 1
 125 625 l 1
 31.25 531.25 l 1
 0 562.5 l 1
 0 906.25 l 1
 31.25 937.5 l 1x16
31.25 468.75 m 1x62
 125 375 l 1
 125 156.25 l 1
 31.25 62.5 l 1
 0 93.75 l 1
 0 437.5 l 1
 31.25 468.75 l 1x62
156.25 125 m 1x82
 281.25 125 l 1
 375 31.25 l 1
 343.75 0 l 1
 93.75 0 l 1
 62.5 31.25 l 1
 156.25 125 l 1x82
EndSplineSet
Validated: 2621441
EndChar

StartChar: 
Encoding: 13 69 13
Width: 500
VWidth: 1024
HStem: 0 125<156.25 281.25> 62.5 21G<11.25 51.25> 437.5 125<125 312.5> 468.75 448.75G<11.25 51.25> 531.25 21G<11.25 51.25> 875 125<156.25 281.25> 917.5 20G<11.25 51.25>
VStem: 0 125<156.25 375 625 843.75>
LayerCount: 2
Fore
SplineSet
93.75 1000 m 1x05
 343.75 1000 l 1
 375 968.75 l 1
 281.25 875 l 1
 156.25 875 l 1
 62.5 968.75 l 1
 93.75 1000 l 1x05
31.25 937.5 m 1x23
 125 843.75 l 1
 125 625 l 1
 31.25 531.25 l 1x0b
 0 562.5 l 1
 0 906.25 l 1
 31.25 937.5 l 1x23
125 562.5 m 1x21
 312.5 562.5 l 1
 375 500 l 1
 312.5 437.5 l 1
 125 437.5 l 1
 62.5 500 l 1
 125 562.5 l 1x21
31.25 468.75 m 1x11
 125 375 l 1
 125 156.25 l 1
 31.25 62.5 l 1
 0 93.75 l 1
 0 437.5 l 1x61
 31.25 468.75 l 1x11
156.25 125 m 1x81
 281.25 125 l 1
 375 31.25 l 1
 343.75 0 l 1
 93.75 0 l 1
 62.5 31.25 l 1
 156.25 125 l 1x81
EndSplineSet
Validated: 2621441
EndChar

StartChar: 
Encoding: 14 70 14
Width: 500
VWidth: 1024
HStem: 62.5 21G<11.25 51.25> 437.5 125<125 312.5> 468.75 448.75G<11.25 51.25> 531.25 21G<11.25 51.25> 875 125<156.25 281.25> 917.5 20G<11.25 51.25>
VStem: 0 125<156.25 375 625 843.75>
LayerCount: 2
Fore
SplineSet
93.75 1000 m 1x8a
 343.75 1000 l 1
 375 968.75 l 1
 281.25 875 l 1
 156.25 875 l 1
 62.5 968.75 l 1
 93.75 1000 l 1x8a
31.25 937.5 m 1xc6
 125 843.75 l 1
 125 625 l 1
 31.25 531.25 l 1x96
 0 562.5 l 1
 0 906.25 l 1
 31.25 937.5 l 1xc6
125 562.5 m 1xc2
 312.5 562.5 l 1
 375 500 l 1
 312.5 437.5 l 1
 125 437.5 l 1
 62.5 500 l 1
 125 562.5 l 1xc2
31.25 468.75 m 1xa2
 125 375 l 1
 125 156.25 l 1
 31.25 62.5 l 1
 0 93.75 l 1
 0 437.5 l 1xc2
 31.25 468.75 l 1xa2
EndSplineSet
Validated: 2621441
EndChar

StartChar: 
Encoding: 15 71 15
Width: 500
VWidth: 1024
HStem: 0 125<156.25 281.25> 62.5 21G<11.25 51.25 386.25 426.25> 468.75 448.75G<11.25 51.25 386.25 426.25> 531.25 21G<11.25 51.25> 875 125<156.25 281.25> 917.5 20G<11.25 51.25>
VStem: 0 125<156.25 375 625 843.75> 312.5 125<156.25 375>
LayerCount: 2
Fore
SplineSet
93.75 1000 m 1x0b
 343.75 1000 l 1
 375 968.75 l 1
 281.25 875 l 1
 156.25 875 l 1
 62.5 968.75 l 1
 93.75 1000 l 1x0b
31.25 937.5 m 1x17
 125 843.75 l 1
 125 625 l 1
 31.25 531.25 l 1
 0 562.5 l 1
 0 906.25 l 1
 31.25 937.5 l 1x17
31.25 468.75 m 1x63
 125 375 l 1
 125 156.25 l 1
 31.25 62.5 l 1
 0 93.75 l 1
 0 437.5 l 1
 31.25 468.75 l 1x63
406.25 468.75 m 1
 437.5 437.5 l 1
 437.5 93.75 l 1
 406.25 62.5 l 1
 312.5 156.25 l 1
 312.5 375 l 1
 406.25 468.75 l 1
156.25 125 m 1x83
 281.25 125 l 1
 375 31.25 l 1
 343.75 0 l 1
 93.75 0 l 1
 62.5 31.25 l 1
 156.25 125 l 1x83
EndSplineSet
Validated: 2621441
EndChar

StartChar: 
Encoding: 16 72 16
Width: 500
VWidth: 1024
HStem: 62.5 21G<11.25 51.25 386.25 426.25> 437.5 125<125 312.5> 468.75 448.75G<11.25 51.25 386.25 426.25> 531.25 21G<11.25 51.25 386.25 426.25> 917.5 20G<11.25 51.25 386.25 426.25>
VStem: 0 125<156.25 375 625 843.75> 312.5 125<156.25 375 625 843.75>
LayerCount: 2
Fore
SplineSet
31.25 937.5 m 1xce
 125 843.75 l 1
 125 625 l 1
 31.25 531.25 l 1x9e
 0 562.5 l 1
 0 906.25 l 1
 31.25 937.5 l 1xce
406.25 937.5 m 1
 437.5 906.25 l 1
 437.5 562.5 l 1xce
 406.25 531.25 l 1
 312.5 625 l 1
 312.5 843.75 l 1
 406.25 937.5 l 1
125 562.5 m 1
 312.5 562.5 l 1
 375 500 l 1
 312.5 437.5 l 1
 125 437.5 l 1
 62.5 500 l 1
 125 562.5 l 1
31.25 468.75 m 1xa6
 125 375 l 1
 125 156.25 l 1
 31.25 62.5 l 1
 0 93.75 l 1
 0 437.5 l 1xc6
 31.25 468.75 l 1xa6
406.25 468.75 m 1xa6
 437.5 437.5 l 1xc6
 437.5 93.75 l 1
 406.25 62.5 l 1
 312.5 156.25 l 1
 312.5 375 l 1
 406.25 468.75 l 1xa6
EndSplineSet
Validated: 2621441
EndChar

StartChar: 
Encoding: 17 73 17
Width: 500
VWidth: 1024
HStem: 62.5 21G<386.25 426.25> 468.75 448.75G<386.25 426.25> 531.25 21G<386.25 426.25> 917.5 20G<386.25 426.25>
VStem: 312.5 125<156.25 375 625 843.75>
LayerCount: 2
Fore
SplineSet
406.25 937.5 m 1xb8
 437.5 906.25 l 1
 437.5 562.5 l 1
 406.25 531.25 l 1
 312.5 625 l 1
 312.5 843.75 l 1
 406.25 937.5 l 1xb8
406.25 468.75 m 1xc8
 437.5 437.5 l 1
 437.5 93.75 l 1
 406.25 62.5 l 1
 312.5 156.25 l 1
 312.5 375 l 1
 406.25 468.75 l 1xc8
EndSplineSet
Validated: 2621441
EndChar

StartChar: 
Encoding: 18 74 18
Width: 500
VWidth: 1024
HStem: 0 125<156.25 281.25> 62.5 21G<11.25 51.25 386.25 426.25> 468.75 448.75G<11.25 51.25 386.25 426.25> 531.25 21G<386.25 426.25> 917.5 20G<386.25 426.25>
VStem: 0 125<156.25 375> 312.5 125<156.25 375 625 843.75>
LayerCount: 2
Fore
SplineSet
406.25 937.5 m 1x1e
 437.5 906.25 l 1
 437.5 562.5 l 1
 406.25 531.25 l 1
 312.5 625 l 1
 312.5 843.75 l 1
 406.25 937.5 l 1x1e
31.25 468.75 m 1x66
 125 375 l 1
 125 156.25 l 1
 31.25 62.5 l 1
 0 93.75 l 1
 0 437.5 l 1
 31.25 468.75 l 1x66
406.25 468.75 m 1
 437.5 437.5 l 1
 437.5 93.75 l 1
 406.25 62.5 l 1
 312.5 156.25 l 1
 312.5 375 l 1
 406.25 468.75 l 1
156.25 125 m 1x86
 281.25 125 l 1
 375 31.25 l 1
 343.75 0 l 1
 93.75 0 l 1
 62.5 31.25 l 1
 156.25 125 l 1x86
EndSplineSet
Validated: 2621441
EndChar

StartChar: 
Encoding: 19 76 19
Width: 500
VWidth: 1024
HStem: 0 125<156.25 281.25> 62.5 21G<11.25 51.25> 468.75 448.75G<11.25 51.25> 531.25 21G<11.25 51.25> 917.5 20G<11.25 51.25>
VStem: 0 125<156.25 375 625 843.75>
LayerCount: 2
Fore
SplineSet
31.25 937.5 m 1x1c
 125 843.75 l 1
 125 625 l 1
 31.25 531.25 l 1
 0 562.5 l 1
 0 906.25 l 1
 31.25 937.5 l 1x1c
31.25 468.75 m 1x64
 125 375 l 1
 125 156.25 l 1
 31.25 62.5 l 1
 0 93.75 l 1
 0 437.5 l 1
 31.25 468.75 l 1x64
156.25 125 m 1x84
 281.25 125 l 1
 375 31.25 l 1
 343.75 0 l 1
 93.75 0 l 1
 62.5 31.25 l 1
 156.25 125 l 1x84
EndSplineSet
Validated: 2621441
EndChar

StartChar: 
Encoding: 20 79 20
Width: 500
VWidth: 1024
HStem: 0 125<156.25 281.25> 62.5 21G<11.25 51.25 386.25 426.25> 468.75 448.75G<11.25 51.25 386.25 426.25> 531.25 21G<11.25 51.25 386.25 426.25> 875 125<156.25 281.25> 917.5 20G<11.25 51.25 386.25 426.25>
VStem: 0 125<156.25 375 625 843.75> 312.5 125<156.25 375 625 843.75>
LayerCount: 2
Fore
SplineSet
93.75 1000 m 1x0b
 343.75 1000 l 1
 375 968.75 l 1
 281.25 875 l 1
 156.25 875 l 1
 62.5 968.75 l 1
 93.75 1000 l 1x0b
31.25 937.5 m 1x17
 125 843.75 l 1
 125 625 l 1
 31.25 531.25 l 1
 0 562.5 l 1
 0 906.25 l 1
 31.25 937.5 l 1x17
406.25 937.5 m 1
 437.5 906.25 l 1
 437.5 562.5 l 1
 406.25 531.25 l 1
 312.5 625 l 1
 312.5 843.75 l 1
 406.25 937.5 l 1
31.25 468.75 m 1x63
 125 375 l 1
 125 156.25 l 1
 31.25 62.5 l 1
 0 93.75 l 1
 0 437.5 l 1
 31.25 468.75 l 1x63
406.25 468.75 m 1
 437.5 437.5 l 1
 437.5 93.75 l 1
 406.25 62.5 l 1
 312.5 156.25 l 1
 312.5 375 l 1
 406.25 468.75 l 1
156.25 125 m 1x83
 281.25 125 l 1
 375 31.25 l 1
 343.75 0 l 1
 93.75 0 l 1
 62.5 31.25 l 1
 156.25 125 l 1x83
EndSplineSet
Validated: 2621441
EndChar

StartChar: 
Encoding: 21 80 21
Width: 500
VWidth: 1024
HStem: 62.5 21G<11.25 51.25> 437.5 125<125 312.5> 531.25 21G<11.25 51.25 386.25 426.25> 875 125<156.25 281.25> 917.5 20G<11.25 51.25 386.25 426.25> 917.5 20G<11.25 51.25 386.25 426.25>
VStem: 0 125<156.25 375 625 843.75> 312.5 125<625 843.75>
LayerCount: 2
Fore
SplineSet
93.75 1000 m 1x93
 343.75 1000 l 1
 375 968.75 l 1
 281.25 875 l 1
 156.25 875 l 1
 62.5 968.75 l 1
 93.75 1000 l 1x93
31.25 937.5 m 1xcb
 125 843.75 l 1
 125 625 l 1
 31.25 531.25 l 1xab
 0 562.5 l 1
 0 906.25 l 1
 31.25 937.5 l 1xcb
406.25 937.5 m 1
 437.5 906.25 l 1
 437.5 562.5 l 1xcb
 406.25 531.25 l 1
 312.5 625 l 1
 312.5 843.75 l 1
 406.25 937.5 l 1
125 562.5 m 1
 312.5 562.5 l 1
 375 500 l 1
 312.5 437.5 l 1
 125 437.5 l 1
 62.5 500 l 1
 125 562.5 l 1
31.25 468.75 m 1
 125 375 l 1
 125 156.25 l 1
 31.25 62.5 l 1
 0 93.75 l 1
 0 437.5 l 1
 31.25 468.75 l 1
EndSplineSet
Validated: 2621441
EndChar

StartChar: 
Encoding: 22 83 22
Width: 500
VWidth: 1024
HStem: 0 125<156.25 281.25> 62.5 21G<386.25 426.25> 437.5 125<125 312.5> 531.25 21G<11.25 51.25> 875 125<156.25 281.25> 917.5 20G<11.25 51.25 386.25 426.25>
VStem: 0 125<625 843.75> 312.5 125<156.25 375>
LayerCount: 2
Fore
SplineSet
93.75 1000 m 1x0b
 343.75 1000 l 1
 375 968.75 l 1
 281.25 875 l 1
 156.25 875 l 1
 62.5 968.75 l 1
 93.75 1000 l 1x0b
31.25 937.5 m 1x27
 125 843.75 l 1
 125 625 l 1
 31.25 531.25 l 1x17
 0 562.5 l 1
 0 906.25 l 1
 31.25 937.5 l 1x27
125 562.5 m 1x23
 312.5 562.5 l 1
 375 500 l 1
 312.5 437.5 l 1
 125 437.5 l 1
 62.5 500 l 1
 125 562.5 l 1x23
406.25 468.75 m 1
 437.5 437.5 l 1
 437.5 93.75 l 1
 406.25 62.5 l 1x63
 312.5 156.25 l 1
 312.5 375 l 1
 406.25 468.75 l 1
156.25 125 m 1x83
 281.25 125 l 1
 375 31.25 l 1
 343.75 0 l 1
 93.75 0 l 1
 62.5 31.25 l 1
 156.25 125 l 1x83
EndSplineSet
Validated: 2621441
EndChar

StartChar: 
Encoding: 23 85 23
Width: 500
VWidth: 1024
HStem: 0 125<156.25 281.25> 62.5 21G<11.25 51.25 386.25 426.25> 468.75 448.75G<11.25 51.25 386.25 426.25> 531.25 21G<11.25 51.25 386.25 426.25> 917.5 20G<11.25 51.25 386.25 426.25>
VStem: 0 125<156.25 375 625 843.75> 312.5 125<156.25 375 625 843.75>
LayerCount: 2
Fore
SplineSet
31.25 937.5 m 1x1e
 125 843.75 l 1
 125 625 l 1
 31.25 531.25 l 1
 0 562.5 l 1
 0 906.25 l 1
 31.25 937.5 l 1x1e
406.25 937.5 m 1
 437.5 906.25 l 1
 437.5 562.5 l 1
 406.25 531.25 l 1
 312.5 625 l 1
 312.5 843.75 l 1
 406.25 937.5 l 1
31.25 468.75 m 1x66
 125 375 l 1
 125 156.25 l 1
 31.25 62.5 l 1
 0 93.75 l 1
 0 437.5 l 1
 31.25 468.75 l 1x66
406.25 468.75 m 1
 437.5 437.5 l 1
 437.5 93.75 l 1
 406.25 62.5 l 1
 312.5 156.25 l 1
 312.5 375 l 1
 406.25 468.75 l 1
156.25 125 m 1x86
 281.25 125 l 1
 375 31.25 l 1
 343.75 0 l 1
 93.75 0 l 1
 62.5 31.25 l 1
 156.25 125 l 1x86
EndSplineSet
Validated: 2621441
EndChar

StartChar: 
Encoding: 24 90 24
Width: 500
VWidth: 1024
HStem: 0 125<156.25 281.25> 62.5 21G<11.25 51.25> 437.5 125<125 312.5> 468.75 448.75G<11.25 51.25 386.25 426.25> 531.25 21G<386.25 426.25> 875 125<156.25 281.25> 917.5 20G<386.25 426.25>
VStem: 0 125<156.25 375> 312.5 125<625 843.75>
LayerCount: 2
Fore
SplineSet
93.75 1000 m 1x0580
 343.75 1000 l 1
 375 968.75 l 1
 281.25 875 l 1
 156.25 875 l 1
 62.5 968.75 l 1
 93.75 1000 l 1x0580
406.25 937.5 m 1x0b80
 437.5 906.25 l 1
 437.5 562.5 l 1x2380
 406.25 531.25 l 1
 312.5 625 l 1
 312.5 843.75 l 1
 406.25 937.5 l 1x0b80
125 562.5 m 1
 312.5 562.5 l 1
 375 500 l 1
 312.5 437.5 l 1
 125 437.5 l 1
 62.5 500 l 1
 125 562.5 l 1
31.25 468.75 m 1x1180
 125 375 l 1
 125 156.25 l 1
 31.25 62.5 l 1
 0 93.75 l 1
 0 437.5 l 1x6180
 31.25 468.75 l 1x1180
156.25 125 m 1x8180
 281.25 125 l 1
 375 31.25 l 1
 343.75 0 l 1
 93.75 0 l 1
 62.5 31.25 l 1
 156.25 125 l 1x8180
EndSplineSet
Validated: 2621441
EndChar

StartChar: 
Encoding: 25 97 25
Width: 500
VWidth: 1024
HStem: 0 125<156.25 281.25> 62.5 21G<11.25 51.25 386.25 426.25> 437.5 125<125 312.5> 468.75 448.75G<11.25 51.25 386.25 426.25> 531.25 21G<386.25 426.25> 875 125<156.25 281.25> 917.5 20G<386.25 426.25>
VStem: 0 125<156.25 375> 312.5 125<156.25 375 625 843.75>
LayerCount: 2
Fore
SplineSet
93.75 1000 m 1x0580
 343.75 1000 l 1
 375 968.75 l 1
 281.25 875 l 1
 156.25 875 l 1
 62.5 968.75 l 1
 93.75 1000 l 1x0580
406.25 937.5 m 1x0b80
 437.5 906.25 l 1
 437.5 562.5 l 1x2380
 406.25 531.25 l 1
 312.5 625 l 1
 312.5 843.75 l 1
 406.25 937.5 l 1x0b80
125 562.5 m 1
 312.5 562.5 l 1
 375 500 l 1
 312.5 437.5 l 1
 125 437.5 l 1
 62.5 500 l 1
 125 562.5 l 1
31.25 468.75 m 1x1180
 125 375 l 1
 125 156.25 l 1
 31.25 62.5 l 1
 0 93.75 l 1
 0 437.5 l 1x6180
 31.25 468.75 l 1x1180
406.25 468.75 m 1x5180
 437.5 437.5 l 1x2180
 437.5 93.75 l 1
 406.25 62.5 l 1
 312.5 156.25 l 1
 312.5 375 l 1
 406.25 468.75 l 1x5180
156.25 125 m 1x8180
 281.25 125 l 1
 375 31.25 l 1
 343.75 0 l 1
 93.75 0 l 1
 62.5 31.25 l 1
 156.25 125 l 1x8180
EndSplineSet
Validated: 2621441
EndChar

StartChar: 
Encoding: 26 98 26
Width: 500
VWidth: 1024
HStem: 0 125<156.25 281.25> 62.5 21G<11.25 51.25 386.25 426.25> 437.5 125<125 312.5> 468.75 448.75G<11.25 51.25 386.25 426.25> 531.25 21G<11.25 51.25> 917.5 20G<11.25 51.25>
VStem: 0 125<156.25 375 625 843.75> 312.5 125<156.25 375>
LayerCount: 2
Fore
SplineSet
31.25 937.5 m 1x27
 125 843.75 l 1
 125 625 l 1
 31.25 531.25 l 1x0f
 0 562.5 l 1
 0 906.25 l 1
 31.25 937.5 l 1x27
125 562.5 m 1x23
 312.5 562.5 l 1
 375 500 l 1
 312.5 437.5 l 1
 125 437.5 l 1
 62.5 500 l 1
 125 562.5 l 1x23
31.25 468.75 m 1x13
 125 375 l 1
 125 156.25 l 1
 31.25 62.5 l 1
 0 93.75 l 1
 0 437.5 l 1x63
 31.25 468.75 l 1x13
406.25 468.75 m 1x53
 437.5 437.5 l 1x23
 437.5 93.75 l 1
 406.25 62.5 l 1
 312.5 156.25 l 1
 312.5 375 l 1
 406.25 468.75 l 1x53
156.25 125 m 1x83
 281.25 125 l 1
 375 31.25 l 1
 343.75 0 l 1
 93.75 0 l 1
 62.5 31.25 l 1
 156.25 125 l 1x83
EndSplineSet
Validated: 2621441
EndChar

StartChar: 
Encoding: 27 99 27
Width: 500
VWidth: 1024
HStem: 0 125<156.25 281.25> 62.5 21G<11.25 51.25> 437.5 125<125 312.5> 448.75 20G<11.25 51.25>
VStem: 0 125<156.25 375>
LayerCount: 2
Fore
SplineSet
125 562.5 m 1x28
 312.5 562.5 l 1
 375 500 l 1
 312.5 437.5 l 1
 125 437.5 l 1
 62.5 500 l 1
 125 562.5 l 1x28
31.25 468.75 m 1x18
 125 375 l 1
 125 156.25 l 1
 31.25 62.5 l 1
 0 93.75 l 1
 0 437.5 l 1x68
 31.25 468.75 l 1x18
156.25 125 m 1x88
 281.25 125 l 1
 375 31.25 l 1
 343.75 0 l 1
 93.75 0 l 1
 62.5 31.25 l 1
 156.25 125 l 1x88
EndSplineSet
Validated: 2621441
EndChar

StartChar: 
Encoding: 28 100 28
Width: 500
VWidth: 1024
HStem: 0 125<156.25 281.25> 62.5 21G<11.25 51.25 386.25 426.25> 437.5 125<125 312.5> 468.75 448.75G<11.25 51.25 386.25 426.25> 531.25 21G<386.25 426.25> 917.5 20G<386.25 426.25>
VStem: 0 125<156.25 375> 312.5 125<156.25 375 625 843.75>
LayerCount: 2
Fore
SplineSet
406.25 937.5 m 1x0f
 437.5 906.25 l 1
 437.5 562.5 l 1x27
 406.25 531.25 l 1
 312.5 625 l 1
 312.5 843.75 l 1
 406.25 937.5 l 1x0f
125 562.5 m 1
 312.5 562.5 l 1
 375 500 l 1
 312.5 437.5 l 1
 125 437.5 l 1
 62.5 500 l 1
 125 562.5 l 1
31.25 468.75 m 1x13
 125 375 l 1
 125 156.25 l 1
 31.25 62.5 l 1
 0 93.75 l 1
 0 437.5 l 1x63
 31.25 468.75 l 1x13
406.25 468.75 m 1x53
 437.5 437.5 l 1x23
 437.5 93.75 l 1
 406.25 62.5 l 1
 312.5 156.25 l 1
 312.5 375 l 1
 406.25 468.75 l 1x53
156.25 125 m 1x83
 281.25 125 l 1
 375 31.25 l 1
 343.75 0 l 1
 93.75 0 l 1
 62.5 31.25 l 1
 156.25 125 l 1x83
EndSplineSet
Validated: 2621441
EndChar

StartChar: 
Encoding: 29 101 29
Width: 500
VWidth: 1024
HStem: 0 125<156.25 281.25> 62.5 21G<11.25 51.25> 437.5 125<125 312.5> 531.25 21G<11.25 51.25 386.25 426.25> 875 125<156.25 281.25> 917.5 20G<11.25 51.25 386.25 426.25> 917.5 20G<11.25 51.25 386.25 426.25>
VStem: 0 125<156.25 375 625 843.75> 312.5 125<625 843.75>
LayerCount: 2
Fore
SplineSet
93.75 1000 m 1x0980
 343.75 1000 l 1
 375 968.75 l 1
 281.25 875 l 1
 156.25 875 l 1
 62.5 968.75 l 1
 93.75 1000 l 1x0980
31.25 937.5 m 1x2580
 125 843.75 l 1
 125 625 l 1
 31.25 531.25 l 1x1580
 0 562.5 l 1
 0 906.25 l 1
 31.25 937.5 l 1x2580
406.25 937.5 m 1
 437.5 906.25 l 1
 437.5 562.5 l 1x2580
 406.25 531.25 l 1
 312.5 625 l 1
 312.5 843.75 l 1
 406.25 937.5 l 1
125 562.5 m 1
 312.5 562.5 l 1
 375 500 l 1
 312.5 437.5 l 1
 125 437.5 l 1
 62.5 500 l 1
 125 562.5 l 1
31.25 468.75 m 1
 125 375 l 1
 125 156.25 l 1
 31.25 62.5 l 1x6180
 0 93.75 l 1
 0 437.5 l 1
 31.25 468.75 l 1
156.25 125 m 1x8180
 281.25 125 l 1
 375 31.25 l 1
 343.75 0 l 1
 93.75 0 l 1
 62.5 31.25 l 1
 156.25 125 l 1x8180
EndSplineSet
Validated: 2621441
EndChar

StartChar: 
Encoding: 30 103 30
Width: 500
VWidth: 1024
HStem: 0 125<156.25 281.25> 62.5 21G<386.25 426.25> 437.5 125<125 312.5> 531.25 21G<11.25 51.25 386.25 426.25> 875 125<156.25 281.25> 917.5 20G<11.25 51.25 386.25 426.25> 917.5 20G<11.25 51.25 386.25 426.25>
VStem: 0 125<625 843.75> 312.5 125<156.25 375 625 843.75>
LayerCount: 2
Fore
SplineSet
93.75 1000 m 1x0980
 343.75 1000 l 1
 375 968.75 l 1
 281.25 875 l 1
 156.25 875 l 1
 62.5 968.75 l 1
 93.75 1000 l 1x0980
31.25 937.5 m 1x2580
 125 843.75 l 1
 125 625 l 1
 31.25 531.25 l 1x1580
 0 562.5 l 1
 0 906.25 l 1
 31.25 937.5 l 1x2580
406.25 937.5 m 1
 437.5 906.25 l 1
 437.5 562.5 l 1x2580
 406.25 531.25 l 1
 312.5 625 l 1
 312.5 843.75 l 1
 406.25 937.5 l 1
125 562.5 m 1
 312.5 562.5 l 1
 375 500 l 1
 312.5 437.5 l 1
 125 437.5 l 1
 62.5 500 l 1
 125 562.5 l 1
406.25 468.75 m 1
 437.5 437.5 l 1
 437.5 93.75 l 1
 406.25 62.5 l 1x6180
 312.5 156.25 l 1
 312.5 375 l 1
 406.25 468.75 l 1
156.25 125 m 1x8180
 281.25 125 l 1
 375 31.25 l 1
 343.75 0 l 1
 93.75 0 l 1
 62.5 31.25 l 1
 156.25 125 l 1x8180
EndSplineSet
Validated: 2621441
EndChar

StartChar: 
Encoding: 31 104 31
Width: 500
VWidth: 1024
HStem: 62.5 21G<11.25 51.25 386.25 426.25> 437.5 125<125 312.5> 468.75 448.75G<11.25 51.25 386.25 426.25> 531.25 21G<11.25 51.25> 917.5 20G<11.25 51.25>
VStem: 0 125<156.25 375 625 843.75> 312.5 125<156.25 375>
LayerCount: 2
Fore
SplineSet
31.25 937.5 m 1xce
 125 843.75 l 1
 125 625 l 1
 31.25 531.25 l 1x9e
 0 562.5 l 1
 0 906.25 l 1
 31.25 937.5 l 1xce
125 562.5 m 1xc6
 312.5 562.5 l 1
 375 500 l 1
 312.5 437.5 l 1
 125 437.5 l 1
 62.5 500 l 1
 125 562.5 l 1xc6
31.25 468.75 m 1xa6
 125 375 l 1
 125 156.25 l 1
 31.25 62.5 l 1
 0 93.75 l 1
 0 437.5 l 1xc6
 31.25 468.75 l 1xa6
406.25 468.75 m 1xa6
 437.5 437.5 l 1xc6
 437.5 93.75 l 1
 406.25 62.5 l 1
 312.5 156.25 l 1
 312.5 375 l 1
 406.25 468.75 l 1xa6
EndSplineSet
Validated: 2621441
EndChar

StartChar: 
Encoding: 32 105 32
Width: 500
VWidth: 1024
HStem: 62.5 21G<386.25 426.25> 448.75 20G<386.25 426.25>
VStem: 312.5 125<156.25 375>
LayerCount: 2
Fore
SplineSet
406.25 468.75 m 1
 437.5 437.5 l 1
 437.5 93.75 l 1
 406.25 62.5 l 1
 312.5 156.25 l 1
 312.5 375 l 1
 406.25 468.75 l 1
EndSplineSet
Validated: 2621441
EndChar

StartChar: 
Encoding: 33 106 33
Width: 500
VWidth: 1024
HStem: 0 125<156.25 281.25> 62.5 21G<386.25 426.25> 468.75 448.75G<386.25 426.25> 531.25 21G<386.25 426.25> 917.5 20G<386.25 426.25>
VStem: 312.5 125<156.25 375 625 843.75>
LayerCount: 2
Fore
SplineSet
406.25 937.5 m 1x1c
 437.5 906.25 l 1
 437.5 562.5 l 1
 406.25 531.25 l 1
 312.5 625 l 1
 312.5 843.75 l 1
 406.25 937.5 l 1x1c
406.25 468.75 m 1x64
 437.5 437.5 l 1
 437.5 93.75 l 1
 406.25 62.5 l 1
 312.5 156.25 l 1
 312.5 375 l 1
 406.25 468.75 l 1x64
156.25 125 m 1x84
 281.25 125 l 1
 375 31.25 l 1
 343.75 0 l 1
 93.75 0 l 1
 62.5 31.25 l 1
 156.25 125 l 1x84
EndSplineSet
Validated: 2621441
EndChar

StartChar: 
Encoding: 34 108 34
Width: 500
VWidth: 1024
HStem: 62.5 21G<11.25 51.25> 468.75 448.75G<11.25 51.25> 531.25 21G<11.25 51.25> 917.5 20G<11.25 51.25>
VStem: 0 125<156.25 375 625 843.75>
LayerCount: 2
Fore
SplineSet
31.25 937.5 m 1xb8
 125 843.75 l 1
 125 625 l 1
 31.25 531.25 l 1
 0 562.5 l 1
 0 906.25 l 1
 31.25 937.5 l 1xb8
31.25 468.75 m 1xc8
 125 375 l 1
 125 156.25 l 1
 31.25 62.5 l 1
 0 93.75 l 1
 0 437.5 l 1
 31.25 468.75 l 1xc8
EndSplineSet
Validated: 2621441
EndChar

StartChar: 
Encoding: 35 110 35
Width: 500
VWidth: 1024
HStem: 62.5 21G<11.25 51.25 386.25 426.25> 437.5 125<125 312.5> 448.75 20G<11.25 51.25 386.25 426.25>
VStem: 0 125<156.25 375> 312.5 125<156.25 375>
LayerCount: 2
Fore
SplineSet
125 562.5 m 1xd8
 312.5 562.5 l 1
 375 500 l 1
 312.5 437.5 l 1
 125 437.5 l 1
 62.5 500 l 1
 125 562.5 l 1xd8
31.25 468.75 m 1xb8
 125 375 l 1
 125 156.25 l 1
 31.25 62.5 l 1
 0 93.75 l 1
 0 437.5 l 1xd8
 31.25 468.75 l 1xb8
406.25 468.75 m 1xb8
 437.5 437.5 l 1xd8
 437.5 93.75 l 1
 406.25 62.5 l 1
 312.5 156.25 l 1
 312.5 375 l 1
 406.25 468.75 l 1xb8
EndSplineSet
Validated: 2621441
EndChar

StartChar: 
Encoding: 36 111 36
Width: 500
VWidth: 1024
HStem: 0 125<156.25 281.25> 62.5 21G<11.25 51.25 386.25 426.25> 437.5 125<125 312.5> 448.75 20G<11.25 51.25 386.25 426.25>
VStem: 0 125<156.25 375> 312.5 125<156.25 375>
LayerCount: 2
Fore
SplineSet
125 562.5 m 1x2c
 312.5 562.5 l 1
 375 500 l 1
 312.5 437.5 l 1
 125 437.5 l 1
 62.5 500 l 1
 125 562.5 l 1x2c
31.25 468.75 m 1x1c
 125 375 l 1
 125 156.25 l 1
 31.25 62.5 l 1
 0 93.75 l 1
 0 437.5 l 1x6c
 31.25 468.75 l 1x1c
406.25 468.75 m 1x5c
 437.5 437.5 l 1x2c
 437.5 93.75 l 1
 406.25 62.5 l 1
 312.5 156.25 l 1
 312.5 375 l 1
 406.25 468.75 l 1x5c
156.25 125 m 1x8c
 281.25 125 l 1
 375 31.25 l 1
 343.75 0 l 1
 93.75 0 l 1
 62.5 31.25 l 1
 156.25 125 l 1x8c
EndSplineSet
Validated: 2621441
EndChar

StartChar: 
Encoding: 37 113 37
Width: 500
VWidth: 1024
HStem: 62.5 21G<386.25 426.25> 437.5 125<125 312.5> 531.25 21G<11.25 51.25 386.25 426.25> 875 125<156.25 281.25> 917.5 20G<11.25 51.25 386.25 426.25> 917.5 20G<11.25 51.25 386.25 426.25>
VStem: 0 125<625 843.75> 312.5 125<156.25 375 625 843.75>
LayerCount: 2
Fore
SplineSet
93.75 1000 m 1x93
 343.75 1000 l 1
 375 968.75 l 1
 281.25 875 l 1
 156.25 875 l 1
 62.5 968.75 l 1
 93.75 1000 l 1x93
31.25 937.5 m 1xcb
 125 843.75 l 1
 125 625 l 1
 31.25 531.25 l 1xab
 0 562.5 l 1
 0 906.25 l 1
 31.25 937.5 l 1xcb
406.25 937.5 m 1
 437.5 906.25 l 1
 437.5 562.5 l 1xcb
 406.25 531.25 l 1
 312.5 625 l 1
 312.5 843.75 l 1
 406.25 937.5 l 1
125 562.5 m 1
 312.5 562.5 l 1
 375 500 l 1
 312.5 437.5 l 1
 125 437.5 l 1
 62.5 500 l 1
 125 562.5 l 1
406.25 468.75 m 1
 437.5 437.5 l 1
 437.5 93.75 l 1
 406.25 62.5 l 1
 312.5 156.25 l 1
 312.5 375 l 1
 406.25 468.75 l 1
EndSplineSet
Validated: 2621441
EndChar

StartChar: 
Encoding: 38 114 38
Width: 500
VWidth: 1024
HStem: 62.5 21G<11.25 51.25> 437.5 125<125 312.5> 448.75 20G<11.25 51.25>
VStem: 0 125<156.25 375>
LayerCount: 2
Fore
SplineSet
125 562.5 m 1xd0
 312.5 562.5 l 1
 375 500 l 1
 312.5 437.5 l 1
 125 437.5 l 1
 62.5 500 l 1
 125 562.5 l 1xd0
31.25 468.75 m 1xb0
 125 375 l 1
 125 156.25 l 1
 31.25 62.5 l 1
 0 93.75 l 1
 0 437.5 l 1xd0
 31.25 468.75 l 1xb0
EndSplineSet
Validated: 2621441
EndChar

StartChar: 
Encoding: 39 116 39
Width: 500
VWidth: 1024
HStem: 0 125<156.25 281.25> 62.5 21G<11.25 51.25> 437.5 125<125 312.5> 468.75 448.75G<11.25 51.25> 531.25 21G<11.25 51.25> 917.5 20G<11.25 51.25>
VStem: 0 125<156.25 375 625 843.75>
LayerCount: 2
Fore
SplineSet
31.25 937.5 m 1x26
 125 843.75 l 1
 125 625 l 1
 31.25 531.25 l 1x0e
 0 562.5 l 1
 0 906.25 l 1
 31.25 937.5 l 1x26
125 562.5 m 1x22
 312.5 562.5 l 1
 375 500 l 1
 312.5 437.5 l 1
 125 437.5 l 1
 62.5 500 l 1
 125 562.5 l 1x22
31.25 468.75 m 1x12
 125 375 l 1
 125 156.25 l 1
 31.25 62.5 l 1
 0 93.75 l 1
 0 437.5 l 1x62
 31.25 468.75 l 1x12
156.25 125 m 1x82
 281.25 125 l 1
 375 31.25 l 1
 343.75 0 l 1
 93.75 0 l 1
 62.5 31.25 l 1
 156.25 125 l 1x82
EndSplineSet
Validated: 2621441
EndChar

StartChar: 
Encoding: 40 117 40
Width: 500
VWidth: 1024
HStem: 0 125<156.25 281.25> 62.5 21G<11.25 51.25 386.25 426.25> 448.75 20G<11.25 51.25 386.25 426.25>
VStem: 0 125<156.25 375> 312.5 125<156.25 375>
LayerCount: 2
Fore
SplineSet
31.25 468.75 m 1x78
 125 375 l 1
 125 156.25 l 1
 31.25 62.5 l 1
 0 93.75 l 1
 0 437.5 l 1
 31.25 468.75 l 1x78
406.25 468.75 m 1
 437.5 437.5 l 1
 437.5 93.75 l 1
 406.25 62.5 l 1
 312.5 156.25 l 1
 312.5 375 l 1
 406.25 468.75 l 1
156.25 125 m 1xb8
 281.25 125 l 1
 375 31.25 l 1
 343.75 0 l 1
 93.75 0 l 1
 62.5 31.25 l 1
 156.25 125 l 1xb8
EndSplineSet
Validated: 2621441
EndChar

StartChar: 
Encoding: 41 121 41
Width: 500
VWidth: 1024
HStem: 0 125<156.25 281.25> 62.5 21G<386.25 426.25> 437.5 125<125 312.5> 531.25 21G<11.25 51.25 386.25 426.25> 917.5 20G<11.25 51.25 386.25 426.25> 917.5 20G<11.25 51.25 386.25 426.25>
VStem: 0 125<625 843.75> 312.5 125<156.25 375 625 843.75>
LayerCount: 2
Fore
SplineSet
31.25 937.5 m 1x2b
 125 843.75 l 1
 125 625 l 1
 31.25 531.25 l 1x1b
 0 562.5 l 1
 0 906.25 l 1
 31.25 937.5 l 1x2b
406.25 937.5 m 1
 437.5 906.25 l 1
 437.5 562.5 l 1x2b
 406.25 531.25 l 1
 312.5 625 l 1
 312.5 843.75 l 1
 406.25 937.5 l 1
125 562.5 m 1
 312.5 562.5 l 1
 375 500 l 1
 312.5 437.5 l 1
 125 437.5 l 1
 62.5 500 l 1
 125 562.5 l 1
406.25 468.75 m 1
 437.5 437.5 l 1
 437.5 93.75 l 1
 406.25 62.5 l 1x63
 312.5 156.25 l 1
 312.5 375 l 1
 406.25 468.75 l 1
156.25 125 m 1x83
 281.25 125 l 1
 375 31.25 l 1
 343.75 0 l 1
 93.75 0 l 1
 62.5 31.25 l 1
 156.25 125 l 1x83
EndSplineSet
Validated: 2621441
EndChar

StartChar: 
Encoding: 43 95 42
Width: 500
VWidth: 1024
HStem: 0 125<156.25 281.25>
VStem: 62.5 312.5
LayerCount: 2
Fore
SplineSet
156.25 125 m 1
 281.25 125 l 1
 375 31.25 l 1
 343.75 0 l 1
 93.75 0 l 1
 62.5 31.25 l 1
 156.25 125 l 1
EndSplineSet
Validated: 2621441
EndChar

StartChar: 
Encoding: 44 45 43
Width: 500
VWidth: 1024
HStem: 437.5 125<125 312.5>
VStem: 62.5 312.5
LayerCount: 2
Fore
SplineSet
125 562.5 m 1
 312.5 562.5 l 1
 375 500 l 1
 312.5 437.5 l 1
 125 437.5 l 1
 62.5 500 l 1
 125 562.5 l 1
EndSplineSet
Validated: 2621441
EndChar

StartChar: 
Encoding: 45 61 44
Width: 500
VWidth: 1024
HStem: 0 125<156.25 281.25> 437.5 125<125 312.5>
VStem: 62.5 312.5
LayerCount: 2
Fore
SplineSet
125 562.5 m 1
 312.5 562.5 l 1
 375 500 l 1
 312.5 437.5 l 1
 125 437.5 l 1
 62.5 500 l 1
 125 562.5 l 1
156.25 125 m 1
 281.25 125 l 1
 375 31.25 l 1
 343.75 0 l 1
 93.75 0 l 1
 62.5 31.25 l 1
 156.25 125 l 1
EndSplineSet
Validated: 2621441
EndChar

StartChar: 
Encoding: 46 62 45
Width: 500
VWidth: 1024
HStem: 437.5 125<125 312.5> 531.25 21G<386.25 426.25> 875 125<156.25 281.25> 917.5 20G<386.25 426.25> 917.5 20G<386.25 426.25>
VStem: 312.5 125<625 843.75>
LayerCount: 2
Fore
SplineSet
93.75 1000 m 1x24
 343.75 1000 l 1
 375 968.75 l 1
 281.25 875 l 1
 156.25 875 l 1
 62.5 968.75 l 1
 93.75 1000 l 1x24
406.25 937.5 m 1x54
 437.5 906.25 l 1
 437.5 562.5 l 1x94
 406.25 531.25 l 1
 312.5 625 l 1
 312.5 843.75 l 1
 406.25 937.5 l 1x54
125 562.5 m 1
 312.5 562.5 l 1
 375 500 l 1
 312.5 437.5 l 1
 125 437.5 l 1
 62.5 500 l 1
 125 562.5 l 1
EndSplineSet
Validated: 2621441
EndChar

StartChar: 
Encoding: 47 63 46
Width: 500
VWidth: 1024
HStem: 62.5 21G<11.25 51.25> 437.5 125<125 312.5> 468.75 448.75G<11.25 51.25 386.25 426.25> 531.25 21G<386.25 426.25> 875 125<156.25 281.25> 917.5 20G<386.25 426.25>
VStem: 0 125<156.25 375> 312.5 125<625 843.75>
LayerCount: 2
Fore
SplineSet
93.75 1000 m 1x8b
 343.75 1000 l 1
 375 968.75 l 1
 281.25 875 l 1
 156.25 875 l 1
 62.5 968.75 l 1
 93.75 1000 l 1x8b
406.25 937.5 m 1x97
 437.5 906.25 l 1
 437.5 562.5 l 1xc7
 406.25 531.25 l 1
 312.5 625 l 1
 312.5 843.75 l 1
 406.25 937.5 l 1x97
125 562.5 m 1
 312.5 562.5 l 1
 375 500 l 1
 312.5 437.5 l 1
 125 437.5 l 1
 62.5 500 l 1
 125 562.5 l 1
31.25 468.75 m 1xa3
 125 375 l 1
 125 156.25 l 1
 31.25 62.5 l 1
 0 93.75 l 1
 0 437.5 l 1xc3
 31.25 468.75 l 1xa3
EndSplineSet
Validated: 2621441
EndChar

StartChar: 
Encoding: 48 34 47
Width: 500
VWidth: 1024
HStem: 531.25 21G<11.25 51.25 386.25 426.25> 917.5 20G<11.25 51.25 386.25 426.25> 917.5 20G<11.25 51.25 386.25 426.25>
VStem: 0 125<625 843.75> 312.5 125<625 843.75>
LayerCount: 2
Fore
SplineSet
31.25 937.5 m 1xd8
 125 843.75 l 1
 125 625 l 1
 31.25 531.25 l 1
 0 562.5 l 1
 0 906.25 l 1
 31.25 937.5 l 1xd8
406.25 937.5 m 1
 437.5 906.25 l 1
 437.5 562.5 l 1
 406.25 531.25 l 1
 312.5 625 l 1
 312.5 843.75 l 1
 406.25 937.5 l 1
EndSplineSet
Validated: 2621441
EndChar

StartChar: 
Encoding: 49 39 48
Width: 500
VWidth: 1024
HStem: 531.25 21G<11.25 51.25> 917.5 20G<11.25 51.25> 917.5 20G<11.25 51.25>
VStem: 0 125<625 843.75>
LayerCount: 2
Fore
SplineSet
31.25 937.5 m 1xd0
 125 843.75 l 1
 125 625 l 1
 31.25 531.25 l 1
 0 562.5 l 1
 0 906.25 l 1
 31.25 937.5 l 1xd0
EndSplineSet
Validated: 2621441
EndChar

StartChar: 
Encoding: 50 91 49
Width: 500
VWidth: 1024
HStem: 0 125<156.25 281.25> 62.5 21G<11.25 51.25> 468.75 448.75G<11.25 51.25> 531.25 21G<11.25 51.25> 875 125<156.25 281.25> 917.5 20G<11.25 51.25>
VStem: 0 125<156.25 375 625 843.75>
LayerCount: 2
Fore
SplineSet
93.75 1000 m 1x0a
 343.75 1000 l 1
 375 968.75 l 1
 281.25 875 l 1
 156.25 875 l 1
 62.5 968.75 l 1
 93.75 1000 l 1x0a
31.25 937.5 m 1x16
 125 843.75 l 1
 125 625 l 1
 31.25 531.25 l 1
 0 562.5 l 1
 0 906.25 l 1
 31.25 937.5 l 1x16
31.25 468.75 m 1x62
 125 375 l 1
 125 156.25 l 1
 31.25 62.5 l 1
 0 93.75 l 1
 0 437.5 l 1
 31.25 468.75 l 1x62
156.25 125 m 1x82
 281.25 125 l 1
 375 31.25 l 1
 343.75 0 l 1
 93.75 0 l 1
 62.5 31.25 l 1
 156.25 125 l 1x82
EndSplineSet
Validated: 2621441
EndChar

StartChar: 
Encoding: 51 93 50
Width: 500
VWidth: 1024
HStem: 0 125<156.25 281.25> 62.5 21G<386.25 426.25> 468.75 448.75G<386.25 426.25> 531.25 21G<386.25 426.25> 875 125<156.25 281.25> 917.5 20G<386.25 426.25>
VStem: 312.5 125<156.25 375 625 843.75>
LayerCount: 2
Fore
SplineSet
93.75 1000 m 1x0a
 343.75 1000 l 1
 375 968.75 l 1
 281.25 875 l 1
 156.25 875 l 1
 62.5 968.75 l 1
 93.75 1000 l 1x0a
406.25 937.5 m 1x16
 437.5 906.25 l 1
 437.5 562.5 l 1
 406.25 531.25 l 1
 312.5 625 l 1
 312.5 843.75 l 1
 406.25 937.5 l 1x16
406.25 468.75 m 1x62
 437.5 437.5 l 1
 437.5 93.75 l 1
 406.25 62.5 l 1
 312.5 156.25 l 1
 312.5 375 l 1
 406.25 468.75 l 1x62
156.25 125 m 1x82
 281.25 125 l 1
 375 31.25 l 1
 343.75 0 l 1
 93.75 0 l 1
 62.5 31.25 l 1
 156.25 125 l 1x82
EndSplineSet
Validated: 2621441
EndChar

StartChar: 
Encoding: 52 60 51
Width: 500
VWidth: 1024
HStem: 437.5 125<125 312.5> 531.25 21G<11.25 51.25> 875 125<156.25 281.25> 917.5 20G<11.25 51.25> 917.5 20G<11.25 51.25>
VStem: 0 125<625 843.75>
LayerCount: 2
Fore
SplineSet
93.75 1000 m 1x24
 343.75 1000 l 1
 375 968.75 l 1
 281.25 875 l 1
 156.25 875 l 1
 62.5 968.75 l 1
 93.75 1000 l 1x24
31.25 937.5 m 1x94
 125 843.75 l 1
 125 625 l 1
 31.25 531.25 l 1x54
 0 562.5 l 1
 0 906.25 l 1
 31.25 937.5 l 1x94
125 562.5 m 1x84
 312.5 562.5 l 1
 375 500 l 1
 312.5 437.5 l 1
 125 437.5 l 1
 62.5 500 l 1
 125 562.5 l 1x84
EndSplineSet
Validated: 2621441
EndChar

StartChar: 
Encoding: 53 176 52
Width: 500
VWidth: 1024
HStem: 437.5 125<125 312.5> 531.25 21G<11.25 51.25 386.25 426.25> 875 125<156.25 281.25> 917.5 20G<11.25 51.25 386.25 426.25> 917.5 20G<11.25 51.25 386.25 426.25>
VStem: 0 125<625 843.75> 312.5 125<625 843.75>
LayerCount: 2
Fore
SplineSet
93.75 1000 m 1x26
 343.75 1000 l 1
 375 968.75 l 1
 281.25 875 l 1
 156.25 875 l 1
 62.5 968.75 l 1
 93.75 1000 l 1x26
31.25 937.5 m 1x96
 125 843.75 l 1
 125 625 l 1
 31.25 531.25 l 1x56
 0 562.5 l 1
 0 906.25 l 1
 31.25 937.5 l 1x96
406.25 937.5 m 1
 437.5 906.25 l 1
 437.5 562.5 l 1x96
 406.25 531.25 l 1
 312.5 625 l 1
 312.5 843.75 l 1
 406.25 937.5 l 1
125 562.5 m 1
 312.5 562.5 l 1
 375 500 l 1
 312.5 437.5 l 1
 125 437.5 l 1
 62.5 500 l 1
 125 562.5 l 1
EndSplineSet
Validated: 2621441
EndChar

StartChar: 
Encoding: 54 8801 53
Width: 500
VWidth: 1024
HStem: 0 125<156.25 281.25> 437.5 125<125 312.5> 875 125<156.25 281.25>
VStem: 62.5 312.5
CounterMasks: 1 e0
LayerCount: 2
Fore
SplineSet
93.75 1000 m 1
 343.75 1000 l 1
 375 968.75 l 1
 281.25 875 l 1
 156.25 875 l 1
 62.5 968.75 l 1
 93.75 1000 l 1
125 562.5 m 1
 312.5 562.5 l 1
 375 500 l 1
 312.5 437.5 l 1
 125 437.5 l 1
 62.5 500 l 1
 125 562.5 l 1
156.25 125 m 1
 281.25 125 l 1
 375 31.25 l 1
 343.75 0 l 1
 93.75 0 l 1
 62.5 31.25 l 1
 156.25 125 l 1
EndSplineSet
Validated: 2621441
EndChar

StartChar: 
Encoding: 55 8254 54
Width: 500
VWidth: 1024
HStem: 875 125<156.25 281.25>
VStem: 62.5 312.5
LayerCount: 2
Fore
SplineSet
93.75 1000 m 1
 343.75 1000 l 1
 375 968.75 l 1
 281.25 875 l 1
 156.25 875 l 1
 62.5 968.75 l 1
 93.75 1000 l 1
EndSplineSet
Validated: 2621441
EndChar
